<?xml version="1.0" encoding="utf-8"?>
<svg version="1.1" xmlns:xlink="http://www.w3.org/1999/xlink" width="30px" height="29px" xmlns="http://www.w3.org/2000/svg">
  <g transform="matrix(1 0 0 1 -1053 -198 )">
    <path d="M 21.796875 25.4549464398236  L 20.4987980769231 17.7618147448015  L 26.015625 12.3345935727788  L 18.4074519230769 11.2016383112791  L 15 4.22117202268431  L 11.5925480769231 11.2016383112791  L 3.984375 12.3345935727788  L 9.50120192307692 17.7618147448015  L 8.18509615384615 25.4549464398236  L 15 21.8185255198488  L 21.796875 25.4549464398236  Z M 28.9903846153846 10.3976055450536  C 29.6634615384615 10.5072463768116  30 10.7874396135266  30 11.2381852551985  C 30 11.5061961772737  29.84375 11.7985717286284  29.53125 12.1153119092628  L 22.9867788461538 18.5841209829868  L 24.5372596153846 27.7208569628229  C 24.5492788461538 27.8061331653014  24.5552884615385 27.9279563116992  24.5552884615385 28.0863264020164  C 24.5552884615385 28.6954421340055  24.3088942307692 29  23.8161057692308 29  C 23.5877403846154 29  23.3473557692308 28.9269061121613  23.0949519230769 28.7807183364839  L 15 24.4681789540013  L 6.90504807692308 28.7807183364839  C 6.640625 28.9269061121613  6.40024038461538 29  6.18389423076923 29  C 5.93149038461538 29  5.7421875 28.9116782188616  5.61598557692308 28.7350346565847  C 5.48978365384615 28.5583910943079  5.42668269230769 28.3421550094518  5.42668269230769 28.0863264020164  C 5.42668269230769 28.0132325141777  5.43870192307692 27.8914093677799  5.46274038461538 27.7208569628229  L 7.01322115384615 18.5841209829868  L 0.450721153846154 12.1153119092628  C 0.150240384615385 11.7863894139887  0 11.4940138626339  0 11.2381852551985  C 0 10.7874396135266  0.336538461538462 10.5072463768116  1.00961538461538 10.3976055450536  L 10.0600961538462 9.06364209199748  L 14.1165865384615 0.749212350346564  C 14.3449519230769 0.24973745011552  14.6394230769231 0  15 0  C 15.3605769230769 0  15.6550480769231 0.24973745011552  15.8834134615385 0.749212350346564  L 19.9399038461538 9.06364209199748  L 28.9903846153846 10.3976055450536  Z " fill-rule="nonzero" fill="#f7921e" stroke="none" transform="matrix(1 0 0 1 1053 198 )" />
  </g>
</svg>